<?xml version="1.0" encoding="UTF-8" ?>
<!DOCTYPE svg PUBLIC "-//W3C//DTD SVG 1.1//EN" "http://www.w3.org/Graphics/SVG/1.1/DTD/svg11.dtd">
<svg width="555pt" height="306pt" viewBox="0 0 555 306" version="1.1" xmlns="http://www.w3.org/2000/svg">
<path fill="#ffffff" d=" M 0.00 0.00 L 555.00 0.00 L 555.00 306.00 L 0.00 306.00 L 0.00 0.00 Z" />
<path fill="#b0bfbc" d=" M 127.17 28.03 C 127.79 27.75 129.03 27.19 129.65 26.92 C 131.78 32.13 133.36 37.57 133.78 43.21 C 137.44 41.96 142.07 40.68 145.26 43.67 C 150.58 48.85 151.28 57.01 150.71 64.02 C 150.48 65.92 149.64 69.49 147.09 67.64 C 146.04 61.23 149.52 53.61 144.91 48.07 C 142.03 44.81 137.38 45.98 134.10 47.89 C 134.63 54.48 135.94 61.00 135.78 67.63 C 135.02 67.70 133.51 67.85 132.75 67.92 C 131.51 60.01 131.79 51.95 130.57 44.04 C 129.78 38.63 128.31 33.36 127.17 28.03 Z" />
<path fill="#b0bfbc" d=" M 181.87 31.48 C 186.71 37.03 186.41 44.93 188.10 51.73 C 192.28 50.16 193.79 45.72 196.79 42.83 C 197.95 41.57 199.79 42.48 201.21 42.40 C 197.81 46.29 193.66 49.59 190.99 54.08 C 190.12 55.55 189.60 57.70 190.97 59.05 C 194.55 62.88 200.12 63.42 204.96 64.48 C 204.89 65.13 204.74 66.44 204.67 67.10 C 202.45 67.34 200.07 68.09 197.93 67.09 C 194.99 65.85 192.44 63.89 189.57 62.51 C 188.39 64.12 188.01 66.13 187.41 68.00 C 186.72 67.94 185.34 67.81 184.66 67.75 C 185.04 63.52 185.46 59.26 185.07 55.01 C 184.46 47.10 181.85 39.45 181.87 31.48 Z" />
<path fill="#b0bfbc" d=" M 28.39 32.24 C 33.54 32.12 34.94 37.29 37.36 40.73 C 39.48 44.26 44.97 44.52 47.75 41.68 C 50.14 39.07 50.54 35.20 52.92 32.60 C 55.66 31.58 55.08 36.26 55.05 37.93 C 53.30 48.14 57.19 58.04 57.45 68.18 C 56.14 68.05 54.84 67.93 53.53 67.80 C 52.58 60.29 52.07 52.73 51.02 45.24 C 48.06 46.18 45.09 47.35 41.94 47.43 C 39.00 47.41 36.90 45.06 34.71 43.45 C 34.83 50.97 34.76 58.50 34.55 66.02 C 33.80 66.17 32.30 66.47 31.55 66.62 C 30.11 59.11 31.48 51.51 31.65 43.97 C 31.93 39.78 29.53 36.12 28.39 32.24 Z" />
<path fill="#b0bfbc" d=" M 59.34 32.50 C 61.34 33.36 62.88 34.88 64.02 36.70 C 62.47 36.70 60.92 36.69 59.38 36.67 C 59.36 35.28 59.35 33.89 59.34 32.50 Z" />
<path fill="#b0bfbc" d=" M 75.59 31.61 C 80.42 37.10 80.04 44.96 81.78 51.68 C 85.57 50.29 87.23 46.51 89.64 43.61 C 90.78 41.89 93.10 42.30 94.84 41.91 C 91.59 46.56 86.68 49.95 84.14 55.10 C 83.00 57.01 84.22 59.08 85.84 60.19 C 89.78 63.16 94.89 63.55 99.49 64.86 C 98.11 66.42 96.41 68.16 94.09 67.70 C 89.87 67.05 86.48 64.14 82.78 62.22 C 82.20 64.37 81.62 66.52 81.02 68.66 C 77.34 67.72 78.81 63.71 78.67 61.00 C 79.61 51.03 75.54 41.52 75.59 31.61 Z" />
<path fill="#b0bfbc" d=" M 70.43 34.28 C 72.11 35.33 73.76 36.75 73.54 38.95 C 73.68 47.91 74.84 56.96 73.50 65.88 C 73.50 67.42 71.87 67.95 70.95 68.86 C 69.28 57.40 69.97 45.80 70.43 34.28 Z" />
<path fill="#b0bfbc" d=" M 215.37 38.44 C 220.08 36.58 226.05 39.65 226.35 44.93 C 227.63 52.18 219.18 55.91 213.18 55.67 C 211.30 55.86 210.69 53.86 209.80 52.66 C 214.13 52.89 218.89 52.39 222.08 49.09 C 225.23 46.68 222.51 41.32 219.03 40.90 C 214.73 40.51 210.88 44.00 209.86 48.01 C 209.05 51.43 209.12 55.16 210.44 58.45 C 211.74 61.52 215.02 63.11 218.12 63.77 C 223.31 64.77 228.61 63.89 233.84 63.92 C 227.63 69.08 217.89 69.57 211.49 64.50 C 202.88 58.00 204.76 41.78 215.37 38.44 Z" />
<path fill="#b0bfbc" d=" M 160.78 43.70 C 161.08 40.65 163.67 38.14 166.87 39.18 C 176.64 42.00 181.13 53.39 180.35 62.80 C 176.56 59.58 174.19 54.17 168.83 53.24 C 165.12 52.78 161.12 53.85 158.16 56.14 C 156.17 57.77 156.31 61.06 158.75 62.19 C 165.79 66.35 174.00 62.07 181.56 63.26 C 178.13 66.90 172.80 67.66 168.05 67.99 C 163.04 68.00 156.74 66.73 154.44 61.70 C 152.53 57.61 155.53 53.06 159.27 51.35 C 164.15 48.91 169.70 50.52 174.67 51.73 C 173.51 48.43 171.96 44.87 168.55 43.37 C 166.10 41.81 163.32 43.27 160.78 43.70 Z" />
<path fill="#b0bfbc" d=" M 62.50 41.49 C 65.53 43.31 64.88 47.15 65.47 50.15 C 65.97 55.99 68.61 61.85 67.11 67.73 C 66.57 67.80 65.50 67.96 64.97 68.03 C 61.48 59.72 62.05 50.31 62.50 41.49 Z" />
<path fill="#b0bfbc" d=" M 102.28 44.29 C 106.20 41.00 112.42 40.57 116.78 43.22 C 119.22 44.64 118.64 47.82 119.16 50.17 C 118.53 50.25 117.27 50.40 116.64 50.48 C 116.28 48.93 116.21 47.33 116.08 45.75 C 112.28 44.54 107.77 43.99 104.39 46.58 C 104.01 48.21 103.88 50.53 105.75 51.28 C 111.33 54.18 118.16 52.34 123.73 55.29 C 127.77 57.26 128.08 63.84 124.18 66.12 C 119.52 69.03 113.61 68.10 108.44 67.48 C 104.22 67.04 100.90 64.14 99.03 60.46 C 103.63 61.09 107.32 64.52 111.99 64.81 C 115.46 65.00 119.23 65.07 122.32 63.21 C 123.12 61.47 123.41 58.64 121.35 57.67 C 115.82 54.94 108.98 56.76 103.65 53.37 C 100.83 51.49 99.32 46.73 102.28 44.29 Z" />
<path fill="#b0bfbc" d=" M 36.80 117.48 C 37.13 115.99 38.54 115.32 39.93 115.92 C 42.50 116.56 43.18 119.69 43.31 121.97 C 43.65 126.70 40.53 130.57 39.37 134.93 C 39.81 137.66 41.15 140.13 42.33 142.61 C 45.25 140.04 45.23 136.03 45.61 132.47 C 48.58 132.65 52.95 131.03 53.97 134.97 C 52.24 135.29 50.51 135.59 48.77 135.89 C 47.73 139.59 46.24 143.18 45.54 146.98 C 46.81 150.10 48.99 152.73 50.63 155.66 C 47.57 154.18 45.25 151.68 43.09 149.13 C 40.43 151.82 38.24 156.14 33.95 156.16 C 31.30 156.50 29.25 154.33 28.39 152.05 C 28.13 145.38 33.27 140.35 35.35 134.37 C 36.88 128.87 35.71 123.04 36.80 117.48 Z" />
<path fill="#ffffff" d=" M 31.52 150.93 C 32.71 146.44 34.34 142.01 37.31 138.37 C 38.66 141.05 40.90 143.65 40.79 146.81 C 39.67 150.23 36.20 151.94 33.26 153.56 C 32.83 152.90 31.96 151.59 31.52 150.93 Z" />
<path fill="#b0bfbc" d=" M 29.29 208.12 C 36.60 205.63 44.94 203.16 52.38 206.50 C 55.09 207.73 58.35 209.69 58.47 213.01 C 58.16 216.07 55.97 218.47 54.41 220.99 C 59.55 223.79 65.01 226.73 68.32 231.75 C 70.61 235.09 70.49 240.46 66.86 242.82 C 62.02 246.00 55.85 245.10 50.42 244.50 C 46.59 244.16 43.11 242.45 40.20 240.00 C 41.37 239.04 42.55 238.08 43.73 237.12 C 42.59 229.69 41.83 222.17 39.99 214.87 C 39.32 212.76 38.79 210.33 36.93 208.93 C 34.13 208.72 31.48 210.20 28.82 210.94 C 28.93 210.23 29.17 208.83 29.29 208.12 Z" />
<path fill="#ffffff" d=" M 42.00 209.77 C 45.38 208.96 49.17 207.82 52.42 209.67 C 54.87 210.84 56.27 214.26 54.30 216.49 C 51.81 218.59 48.45 219.18 45.53 220.48 C 50.21 226.33 59.22 225.21 64.05 230.97 C 66.52 233.64 66.85 239.49 62.87 240.92 C 57.54 242.65 51.57 242.01 46.61 239.45 C 47.61 229.30 44.15 219.54 42.00 209.77 Z" />
<path fill="#b0bfbc" d=" M 219.05 209.16 C 228.40 208.98 237.76 209.45 247.07 210.26 C 250.84 210.58 254.53 211.50 258.09 212.76 C 257.90 213.47 257.51 214.89 257.32 215.60 C 251.66 214.52 246.04 212.81 240.21 213.05 C 240.69 223.94 241.81 235.01 245.75 245.26 C 243.80 244.76 240.70 245.36 240.29 242.67 C 238.21 233.05 237.71 223.13 237.15 213.32 C 231.32 213.02 225.53 212.35 219.78 211.35 C 219.60 210.80 219.23 209.70 219.05 209.16 Z" />
<path fill="#b0bfbc" d=" M 373.59 208.48 C 374.65 209.26 376.84 209.27 377.03 210.91 C 377.64 214.54 377.48 218.24 377.62 221.90 C 379.93 222.03 382.25 222.16 384.57 222.31 C 384.77 222.93 385.16 224.17 385.35 224.79 C 382.78 225.09 380.20 225.38 377.63 225.68 C 377.68 232.54 378.32 239.40 378.16 246.27 C 376.96 245.30 375.28 244.61 374.95 242.93 C 373.38 237.50 373.77 231.76 373.80 226.17 C 371.59 225.75 369.39 225.32 367.19 224.86 C 367.15 224.27 367.06 223.10 367.02 222.51 C 369.17 222.30 371.33 222.09 373.50 221.89 C 373.70 217.42 373.58 212.95 373.59 208.48 Z" />
<path fill="#b0bfbc" d=" M 118.51 208.56 C 123.17 214.19 122.90 221.96 124.66 228.72 C 130.30 226.84 130.85 218.28 137.61 218.77 C 134.44 223.88 128.81 227.23 126.67 232.98 C 126.27 237.65 132.19 239.29 135.82 240.24 C 137.74 241.16 141.63 240.29 141.59 243.21 C 136.16 247.30 130.40 241.62 125.63 239.19 C 125.15 241.07 124.68 242.96 124.21 244.86 C 123.21 244.84 122.21 244.83 121.22 244.82 C 121.60 239.71 121.96 234.55 121.30 229.45 C 120.51 222.46 118.23 215.65 118.51 208.56 Z" />
<path fill="#b0bfbc" d=" M 338.13 215.07 C 339.57 212.06 343.05 210.85 346.12 210.33 C 350.61 209.74 355.41 210.39 359.38 212.65 C 361.20 213.56 361.43 215.76 362.08 217.45 C 358.29 216.26 355.05 213.61 351.12 212.90 C 347.54 212.79 343.06 212.85 340.69 216.01 C 339.91 218.60 342.04 220.72 343.99 222.04 C 350.40 226.40 358.90 227.76 363.97 233.98 C 366.55 237.06 364.82 241.81 361.41 243.43 C 355.68 246.34 348.83 245.77 342.79 244.22 C 338.01 242.83 332.80 240.04 331.25 234.98 C 331.55 233.18 332.93 231.84 333.83 230.32 C 334.75 233.39 334.89 237.20 337.81 239.17 C 342.23 242.13 347.86 242.10 352.98 242.15 C 355.84 241.95 359.67 242.02 361.25 239.13 C 361.57 237.39 361.54 235.21 359.79 234.24 C 354.07 230.43 347.64 227.82 341.83 224.14 C 338.83 222.38 336.77 218.47 338.13 215.07 Z" />
<path fill="#b0bfbc" d=" M 148.24 217.29 C 151.25 215.04 155.64 214.06 159.05 215.98 C 162.85 218.05 163.84 223.37 162.03 227.07 C 159.47 230.96 154.52 232.60 150.05 232.68 C 148.62 232.80 146.72 231.77 146.97 230.12 C 150.63 229.31 154.77 229.58 157.76 226.84 C 161.88 224.61 159.39 217.77 155.02 217.86 C 150.23 217.81 146.25 222.28 146.11 226.94 C 145.88 230.93 145.74 235.93 149.41 238.52 C 155.54 242.80 163.40 240.75 170.34 240.94 C 164.03 246.15 154.08 246.58 147.71 241.27 C 140.51 235.42 140.94 222.87 148.24 217.29 Z" />
<path fill="#b0bfbc" d=" M 71.30 221.64 C 76.56 220.72 81.98 217.43 87.32 219.77 C 89.21 220.38 89.64 222.54 90.54 224.05 C 87.00 223.47 83.55 222.29 79.95 222.10 C 77.85 222.19 75.35 223.56 75.22 225.88 C 74.40 231.55 77.79 236.56 78.50 242.02 C 79.04 243.63 77.47 244.54 76.63 245.60 C 73.15 238.10 71.33 229.90 71.30 221.64 Z" />
<path fill="#b0bfbc" d=" M 175.89 222.94 C 179.71 221.06 184.00 217.59 188.44 219.63 C 193.73 222.77 195.63 229.30 196.58 235.01 C 196.87 238.71 197.78 244.06 193.37 245.68 C 193.11 238.45 193.55 230.27 188.70 224.33 C 184.91 219.95 177.37 223.80 176.86 229.04 C 176.53 234.68 178.90 240.06 178.93 245.70 C 176.88 244.25 174.75 242.53 174.31 239.90 C 172.69 233.95 172.69 227.72 172.75 221.60 C 173.79 222.05 174.84 222.49 175.89 222.94 Z" />
<path fill="#b0bfbc" d=" M 414.15 221.63 C 419.22 220.77 424.31 217.67 429.51 219.53 C 431.74 219.99 432.53 222.27 433.52 224.02 C 430.00 223.50 426.59 222.38 423.04 222.11 C 420.37 221.98 417.70 224.15 417.81 226.94 C 417.94 232.84 420.96 238.18 421.80 243.98 C 421.16 244.26 419.87 244.83 419.22 245.12 C 415.94 237.73 414.15 229.72 414.15 221.63 Z" />
<path fill="#b0bfbc" d=" M 456.06 218.28 C 459.42 224.66 459.55 232.06 460.30 239.07 C 460.75 248.04 461.11 257.38 458.12 265.99 C 456.82 269.82 453.63 274.20 449.00 273.18 C 442.67 271.94 435.13 267.52 435.58 260.13 C 440.08 263.20 443.30 268.60 449.00 269.55 C 452.87 270.10 455.09 266.14 455.83 262.93 C 457.47 255.40 458.21 247.61 457.42 239.92 C 453.86 241.07 450.71 243.45 446.99 243.98 C 440.16 243.39 436.17 236.43 434.79 230.37 C 434.24 226.74 433.12 222.28 435.99 219.33 C 437.53 225.86 437.39 233.50 442.27 238.67 C 446.39 242.73 453.55 239.59 455.64 234.90 C 456.11 229.37 455.10 223.79 456.06 218.28 Z" />
<path fill="#b0bfbc" d=" M 281.60 224.98 C 281.32 222.86 282.23 220.93 283.31 219.19 C 285.25 225.97 284.76 234.41 290.59 239.36 C 295.23 242.62 300.47 238.73 303.58 235.22 C 303.21 229.57 302.79 223.85 303.79 218.23 C 306.55 224.47 307.12 231.33 307.69 238.04 C 308.43 246.68 308.48 255.56 306.29 264.01 C 305.08 267.97 302.85 273.15 298.00 273.29 C 293.06 273.09 288.42 270.41 285.09 266.85 C 283.35 265.11 283.44 262.50 283.09 260.26 C 287.82 263.20 291.02 269.02 296.98 269.57 C 301.22 269.75 302.93 265.08 303.63 261.67 C 304.75 254.44 306.32 246.96 304.50 239.72 C 300.46 241.41 296.27 245.36 291.62 243.37 C 284.73 240.23 281.83 232.09 281.60 224.98 Z" />
<path fill="#b0bfbc" d=" M 102.31 221.43 C 104.93 220.90 107.86 220.56 110.34 221.81 C 115.99 224.92 119.09 232.78 115.65 238.58 C 110.82 247.39 94.70 247.47 91.86 237.00 C 89.36 229.77 95.27 222.59 102.31 221.43 Z" />
<path fill="#b0bfbc" d=" M 264.41 221.49 C 267.44 220.82 270.98 220.46 273.64 222.39 C 278.28 225.66 280.97 232.18 278.48 237.57 C 274.98 245.36 263.40 247.52 257.10 241.91 C 253.48 238.43 252.62 232.44 255.03 228.05 C 256.99 224.60 260.64 222.42 264.41 221.49 Z" />
<path fill="#b0bfbc" d=" M 397.33 221.39 C 401.03 220.45 405.43 220.85 408.02 223.97 C 412.90 228.60 413.37 237.52 407.76 241.78 C 401.24 247.59 388.09 245.63 386.48 236.08 C 384.63 229.00 390.57 222.48 397.33 221.39 Z" />
<path fill="#ffffff" d=" M 100.30 225.37 C 105.26 222.97 112.11 225.98 113.69 231.19 C 114.07 238.73 103.34 244.97 97.34 239.62 C 94.87 237.59 93.71 234.09 94.55 231.00 C 95.36 228.29 97.74 226.35 100.30 225.37 Z" />
<path fill="#ffffff" d=" M 256.58 232.95 C 256.71 227.71 262.30 224.48 267.07 224.49 C 271.52 224.75 274.84 228.22 276.80 231.95 C 275.17 235.97 272.39 239.76 268.11 241.15 C 262.78 243.41 256.33 238.67 256.58 232.95 Z" />
<path fill="#ffffff" d=" M 395.32 225.30 C 400.25 223.03 406.70 226.01 408.52 231.00 C 409.17 235.69 404.89 239.33 400.99 241.01 C 395.67 243.58 388.78 238.87 389.17 233.00 C 388.98 229.30 392.08 226.45 395.32 225.30 Z" />
</svg>
